<svg xmlns="http://www.w3.org/2000/svg" viewBox="0 0 381.6 381.6"><defs><style>.cls-1{fill:#f4f5f5;}</style></defs><g id="Calque_2" data-name="Calque 2"><g id="logo_full"><g id="border"><path class="cls-1" d="M381.6,58.13c-.8,3.23-1.44,6.5-2.42,9.66-2.74,8.85-7.79,16.24-14.31,22.75q-88.15,88.07-176.3,176.11a25.1,25.1,0,0,1-9.27,5.85c-25.8,8.81-51.7,17.31-77.56,25.94-4.95,1.66-9.75,1.95-14.22-1.23-5.31-3.78-6.89-9.78-4.49-17,6.68-20.11,14.1-40,19.88-60.37,4.56-16.08,13.08-28.59,24.94-40.26,53.9-53,107.2-106.66,160.54-160.26,9.75-9.8,20.49-17.15,34.48-18.91.21,0,.4-.28.6-.42h11.92a9.92,9.92,0,0,0,1.68.66C358,4.34,371.92,16.3,379,36.22c1.15,3.22,1.72,6.65,2.56,10ZM117,264.63c17.72-5.91,34.66-11.53,51.56-17.27a11.15,11.15,0,0,0,3.8-2.85q86.31-86.26,172.57-172.58a55.45,55.45,0,0,0,4-4.43c10.62-13.19,4.7-33.41-11.38-38.68-10.87-3.56-19.84-.15-27.69,7.71Q227.4,119,144.76,201.35c-7.1,7-12.14,14.55-14.91,24.14C126.11,238.43,121.47,251.12,117,264.63Z"/><path class="cls-1" d="M0,204.29Q0,136.67,0,69c0-20.76,13.48-37.18,33.54-41a48,48,0,0,1,8.89-.69q79.94,0,159.86,0c9.07,0,14.71,4.47,15.53,12.13a13.41,13.41,0,0,1-12.6,15c-1.49.09-3,.06-4.47.06H43.9c-11.58,0-16.59,5-16.59,16.52q0,133.4,0,266.79c0,11.63,4.89,16.51,16.54,16.51q119.81,0,239.6,0c4.88,0,9.38-.67,12.86-4.55,2.95-3.29,3.48-7.21,3.48-11.43q-.06-65.2,0-130.42a33.48,33.48,0,0,1,.4-5.92,13.48,13.48,0,0,1,26.46-.51,24.15,24.15,0,0,1,.47,5.17q0,66.14,0,132.28c0,25.05-17.66,42.64-42.72,42.64q-120.91,0-241.83,0c-25,0-42.54-17.64-42.55-42.77Q0,271.55,0,204.29Z"/></g></g></g></svg>