<svg xmlns="http://www.w3.org/2000/svg" viewBox="0 0 346.25 426.38"><defs><style>.cls-1{fill:#f4f5f5;}</style></defs><g id="Calque_2" data-name="Calque 2"><g id="logo_full"><g id="border"><path class="cls-1" d="M72.5,426.38c-2.78-.76-5.57-1.44-8.31-2.29-20.37-6.31-34.68-25.5-35.72-47.87-.11-2.36-.1-4.72-.1-7.08q0-118.6.1-237.2c0-3.88-1.22-5.42-4.7-6.72C8.24,119.45-1.91,102.1.3,85.66c2.39-17.76,16.58-32.22,33.77-33,17-.81,34.11-.48,51.16-.65h3.69c.26-5.51.38-10.86.77-16.18C91.15,16.23,107.62.37,128.44.22c29.82-.21,59.66-.4,89.48.07,23,.35,38.66,17.26,39.12,41,.07,3.33,0,6.65,0,10.51,1.64.08,3.1.2,4.55.2,14.85,0,29.7-.13,44.54,0,17.62.23,30.53,8,37.46,24.56,7.72,18.46-2.09,41.43-20.85,48.54-3.64,1.38-4.87,3.09-4.87,7.06q.21,119,.12,238c0,16.51-4.64,31.16-16.9,42.79a48.15,48.15,0,0,1-24.87,12.56,14.73,14.73,0,0,0-2.24.82ZM48.35,128.15v4.38q0,119,0,238.06a56.61,56.61,0,0,0,.7,9.11c2.52,15.54,14.6,26.6,29.92,26.64q94.08.21,188.16,0c10.23,0,18.41-4.42,24.39-12.83,5-7,6.43-14.92,6.44-23.23q0-118.82,0-237.65c0-1.46-.13-2.92-.2-4.5ZM173.24,108q65.34,0,130.67,0a58.78,58.78,0,0,0,6.23-.27,17.52,17.52,0,0,0,15.75-19C325,78.1,317.35,72,305,72q-131.7,0-263.42,0a41.64,41.64,0,0,0-6.21.43,17.79,17.79,0,0,0-1.83,34.8,38,38,0,0,0,8.67.71Q107.7,108,173.24,108Zm63.49-56.19c0-5.29.45-10.16-.09-14.92-.95-8.26-5.86-13.56-13.81-15.89a21.89,21.89,0,0,0-6.14-.8q-43.5-.07-87,0c-10.43,0-18.29,5.83-19.83,15.38-.83,5.22-.14,10.68-.14,16.24Z"/><path class="cls-1" d="M124.18,258.58c0,30.65,0,61.29-.09,91.93a18.39,18.39,0,0,1-2,8.27c-1.83,3.46-5.38,4.73-9.26,4.14a9.08,9.08,0,0,1-8-6.91,19.37,19.37,0,0,1-.67-4.91q0-92.13,0-184.27a16.3,16.3,0,0,1,1.35-6.82c1.83-3.86,5.25-5.56,9.56-5.17a8.92,8.92,0,0,1,8.38,6.9,23,23,0,0,1,.59,6.16Q124.21,213.25,124.18,258.58Z"/><path class="cls-1" d="M163.19,258.75q0-46,0-91.92c0-7.22,3.14-11.41,8.84-12a9.38,9.38,0,0,1,10.62,7.7,22.67,22.67,0,0,1,.5,4.93q0,91.31,0,182.6a23.85,23.85,0,0,1-.55,5.34,9.7,9.7,0,0,1-9.57,7.66,9.81,9.81,0,0,1-9.46-7.87,26.7,26.7,0,0,1-.36-5.37Q163.18,304.3,163.19,258.75Z"/><path class="cls-1" d="M222.12,259.08q0-45.55,0-91.09c0-8.63,3.34-13.14,9.74-13.26S242.1,159.38,242.1,168q0,90.89,0,181.76c0,8.64-3.77,13.48-10.27,13.31s-9.71-4.7-9.71-13.34Q222.11,304.42,222.12,259.08Z"/></g></g></g></svg>