<svg xmlns="http://www.w3.org/2000/svg" viewBox="0 0 155.38 175.65"><defs><style>.cls-1{fill:#fff;}</style></defs><g id="Calque_2" data-name="Calque 2"><g id="Calque_1-2" data-name="Calque 1"><path class="cls-1" d="M79.06,0c1.14.72,2.25,1.48,3.41,2.15q34.91,20,69.82,39.87a5.39,5.39,0,0,1,3.09,5.33q-.12,40.35,0,80.72a4.58,4.58,0,0,1-2.55,4.43q-35.88,21-71.72,42.07a5.83,5.83,0,0,1-6.76,0q-35.65-21.06-71.44-41.9A5.18,5.18,0,0,1,0,127.58Q.11,87.4,0,47.2a5.13,5.13,0,0,1,2.92-5.07Q39,21.63,75,1a11.57,11.57,0,0,0,1.32-1ZM77.69,128.81l35-60.67h-2.26c-5.38,0-10.76,0-16.14,0a8.21,8.21,0,0,1-2.53-.32,3.34,3.34,0,0,1-2-3.76,3.57,3.57,0,0,1,3.74-2.86c5.61,0,11.22,0,16.82,0,.54,0,1.08-.06,1.84-.1L77.69,9.68C66.11,27,54.72,44,43.18,61.18h2.3c5.44,0,10.87,0,16.31,0,2.53,0,4.13,1.68,3.85,4-.22,1.84-1.63,3-4,3-5.61,0-11.22,0-16.83,0-.6,0-1.2,0-2.14.09C54.42,88.5,66,108.5,77.69,128.81Zm40.87-56.88-34.5,59.76,62.37-5.7C137.14,108,127.94,90.11,118.56,71.93Zm-81.74,0C27.43,90.13,18.23,108,9,126l62.36,5.73ZM144.87,45.84,89.45,14.16l-.21.27,30.59,45.63Zm-134.34,0,25,14.21L66.14,14.42l-.22-.24ZM7,114l.27.09L32,66,7,51.84ZM148.37,51.86l-25,14.19,24.76,48,.25-.1ZM19.66,133.93l-.17.39q27.29,16,54.66,32V138.93Zm61.55,32.45,54.72-32.08-.13-.35-54.59,5Z"/><path class="cls-1" d="M81.12,64.75a3.43,3.43,0,0,1-6.86-.08,3.43,3.43,0,1,1,6.86.08Z"/></g></g></svg>