<svg xmlns="http://www.w3.org/2000/svg" xmlns:xlink="http://www.w3.org/1999/xlink" viewBox="0 0 155.42 175.65"><defs><style>.cls-1{fill:url(#Dégradé_sans_nom_5);}.cls-2{fill:#ea754a;}</style><radialGradient id="Dégradé_sans_nom_5" cx="77.71" cy="87.82" r="82.92" gradientUnits="userSpaceOnUse"><stop offset="0.49" stop-color="#c86a4c"/><stop offset="0.56" stop-color="#bf6a54"/><stop offset="0.67" stop-color="#a66b6a"/><stop offset="0.79" stop-color="#806c8a"/><stop offset="0.97" stop-color="#383e5b"/><stop offset="1" stop-color="#2b3653"/></radialGradient></defs><g id="Calque_2" data-name="Calque 2"><g id="Calque_1-2" data-name="Calque 1"><path class="cls-1" d="M79.08,0c1.14.72,2.25,1.48,3.41,2.15q34.91,20,69.82,39.87a5.39,5.39,0,0,1,3.09,5.33q-.12,40.35,0,80.72a4.58,4.58,0,0,1-2.55,4.43q-35.88,21-71.72,42.07a5.83,5.83,0,0,1-6.76,0q-35.65-21.06-71.44-41.9A5.17,5.17,0,0,1,0,127.58Q.12,87.4,0,47.2a5.12,5.12,0,0,1,2.92-5.07Q39,21.63,75,1a12.71,12.71,0,0,0,1.32-1ZM77.71,128.81l35-60.67H94.31a8,8,0,0,1-2.53-.32,3.35,3.35,0,0,1-2-3.76,3.56,3.56,0,0,1,3.74-2.86h16.82c.54,0,1.08-.06,1.84-.1L77.71,9.68C66.13,27,54.74,44,43.2,61.18H61.81c2.53,0,4.13,1.68,3.85,4-.22,1.84-1.63,3-4,3H44.83a19.94,19.94,0,0,0-2.14.09C54.44,88.5,66,108.5,77.71,128.81Zm40.87-56.88-34.5,59.76,62.37-5.7C137.16,108,128,90.11,118.58,71.93Zm-81.74,0C27.45,90.13,18.25,108,9,126l62.36,5.73Zm108-26.09L89.47,14.16l-.21.27,30.59,45.63Zm-134.34,0,25,14.21L66.16,14.42l-.22-.24ZM7,114l.27.09L32,66,7,51.84ZM148.39,51.86l-25,14.19,24.76,48,.25-.1ZM19.68,133.93l-.17.39q27.29,16,54.66,32V138.93Zm61.55,32.45L136,134.3l-.13-.35-54.59,5Z"/><path class="cls-2" d="M81.14,64.75a3.43,3.43,0,1,1-6.86-.08h0a3.43,3.43,0,0,1,6.86.08Z"/></g></g></svg>