<svg xmlns="http://www.w3.org/2000/svg" viewBox="0 0 139.44 157.68"><defs><style>.cls-1{fill:#ea754a;}.cls-2{fill:#f4f5f5;}</style></defs><g id="Calque_2" data-name="Calque 2"><g id="Calque_1-2" data-name="Calque 1"><path d="M69.8,61.09a3,3,0,0,1-3.15-3,3.07,3.07,0,1,1,6.14,0A3,3,0,0,1,69.8,61.09Z"/></g><g id="logo_full"><g id="fond"><polygon class="cls-1" points="69.72 4.95 4.39 41.19 4.39 117.03 69.72 153.26 134.23 115.69 137.35 42.63 69.72 4.95"/></g><g id="border"><path class="cls-2" d="M70.65,0,103,18.52q17,9.72,34,19.39a4.44,4.44,0,0,1,2.51,4.33q-.08,36.23,0,72.46a4.38,4.38,0,0,1-2.39,4.25q-32.31,18.87-64.57,37.86a4.78,4.78,0,0,1-5.52,0Q34.78,137.82,2.52,119A4.49,4.49,0,0,1,0,114.7Q.08,78.46,0,42.24a4.41,4.41,0,0,1,2.51-4.32Q35.57,19.11,68.59.21a.8.8,0,0,0,.2-.21Zm-.93,8.62L38.68,55H54.62c.41,0,.82,0,1.23,0a3.12,3.12,0,0,1,3.06,3.21,3,3,0,0,1-3.15,2.92c-5.24,0-10.48,0-15.73,0H38.21l31.51,54.57c10.59-18.33,21-36.35,31.51-54.57H99.17c-5.14,0-10.28,0-15.42,0a3,3,0,0,1-3.23-3A3.14,3.14,0,0,1,83.67,55c.41,0,.82,0,1.23,0h15.87C90.33,39.36,80.1,24.11,69.72,8.62Zm61.77,104.5L106.41,64.49l-31,53.76ZM8,113.1l56.1,5.15C53.63,100.17,43.4,82.44,33,64.49,24.58,80.87,16.31,96.91,8,113.1ZM80.22,12.63l-.23.23C89.15,26.53,98.31,40.19,107.53,54L130.1,41.14ZM9.36,41.14,31.92,54l27.54-41.1-.21-.22Zm-3,5.37v56.33c7.63-14.78,15-29.15,22.47-43.57Zm126.87,0L110.66,59.28l22.27,43.17.25-.1Zm-66.6,78.18-49.06-4.5-.1.39,49.16,28.82Zm6.28,24.73,49.22-28.86-.15-.35-49.07,4.5Z"/></g></g></g></svg>